<?xml version="1.0" encoding="UTF-8" standalone="no"?>
<!DOCTYPE svg PUBLIC "-//W3C//DTD SVG 1.1//EN" "http://www.w3.org/Graphics/SVG/1.1/DTD/svg11.dtd">
<svg xmlns="http://www.w3.org/2000/svg" xmlns:xlink="http://www.w3.org/1999/xlink" version="1.1" width="116.903pt" height="134.989pt" viewBox="0 0 116.903 134.989">
<g enable-background="new">
<g id="Layer-1" data-name="Layer">
<path transform="matrix(1,0,0,-1,58.4516,2.4552918)" d="M 0 0 L 28.163 -16.26 L 56.326 -32.52 L 56.326 -65.039 L 56.326 -97.559 L 28.163 -113.819 L 0 -130.079 L -28.163 -113.819 L -56.326 -97.559 L -56.326 -65.039 L -56.326 -32.52 L -28.163 -16.26 Z " fill="#ffffff" fill-rule="evenodd"/>
<clipPath id="cp0">
<path transform="matrix(1,0,0,-1,0,134.989)" d="M 0 134.989 L 116.903 134.989 L 116.903 0 L 0 0 Z "/>
</clipPath>
<g clip-path="url(#cp0)">
<path transform="matrix(1,0,0,-1,58.4516,2.4552918)" stroke-width="4.252" stroke-linecap="butt" stroke-miterlimit="22.926" stroke-linejoin="miter" fill="none" stroke="#bc995c" d="M 0 0 L 28.163 -16.26 L 56.326 -32.52 L 56.326 -65.039 L 56.326 -97.559 L 28.163 -113.819 L 0 -130.079 L -28.163 -113.819 L -56.326 -97.559 L -56.326 -65.039 L -56.326 -32.52 L -28.163 -16.26 L 0 0 Z "/>
</g>
<path transform="matrix(1,0,0,-1,7.0779,96.985599)" d="M 0 0 L 50.582 -29.423 L 50.582 29.088 L 50.393 29.088 L .002 58.182 Z " fill="#001b55"/>
<path transform="matrix(1,0,0,-1,109.5166,97.8091)" d="M 0 0 L -.002 58.569 L -50.72 29.286 L -50.529 29.284 L -50.529 -28.953 L 0 .222 Z " fill="#02377c"/>
<path transform="matrix(1,0,0,-1,58.616,8.263802)" d="M 0 0 L 50.993 -29.166 L -.192 -58.663 L -.188 -58.665 L -50.808 -29.497 Z " fill="#000025"/>
<clipPath id="cp1">
<path transform="matrix(1,0,0,-1,0,134.989)" d="M 0 134.989 L 116.903 134.989 L 116.903 0 L 0 0 Z "/>
</clipPath>
<g clip-path="url(#cp1)">
<symbol id="font_2_3">
<path d="M .20500002 0 L .293 0 L .293 .6 L .499 .6 L .499 .674 L 0 .674 L 0 .6 L .20500002 .6 L .20500002 0 Z "/>
</symbol>
<use xlink:href="#font_2_3" transform="matrix(54.6995,31.939,.005,-46.0738,14.6646,89.46216)" fill="#ffffff"/>
<symbol id="font_2_1">
<path d="M .49300004 .101 C .458 .084 .404 .073 .351 .073 C .187 .073 .09200001 .17900002 .09200001 .344 C .09200001 .521 .19700001 .62200006 .35500003 .62200006 C .411 .62200006 .458 .61 .491 .59400007 L .512 .665 C .48900003 .67700007 .43600003 .69500008 .352 .69500008 C .143 .69500008 0 .55200007 0 .34100003 C 0 .120000008 .143 0 .333 0 C .41500003 0 .47900004 .016 .51100006 .032 L .49300004 .101 Z "/>
</symbol>
<use xlink:href="#font_2_1" transform="matrix(46.7081,-23.8361,-3.0179,-44.8964,75.59847,104.747768)" fill="#ffffff"/>
</g>
<path transform="matrix(1,0,0,-1,58.2586,85.4946)" d="M 0 0 L -8.796 14.006 L -17.592 28.011 L .248 27.852 L 18.087 27.694 L 9.044 13.847 Z " fill="#ffffff" fill-rule="evenodd"/>
<path transform="matrix(1,0,0,-1,58.2821,82.8853)" d="M 0 0 L -7.56 12.037 L -15.12 24.075 L .213 23.938 L 15.545 23.802 L 7.773 11.901 Z " fill="#bc995c" fill-rule="evenodd"/>
<symbol id="font_2_2">
<path d="M 0 .008 C .044 .003 .096 0 .158 0 C .289 0 .393 .034 .456 .097 C .51900008 .15900001 .553 .24900002 .553 .35900004 C .553 .46800003 .518 .546 .45800004 .601 C .39900003 .656 .31 .685 .185 .685 C .116 .685 .053000004 .679 0 .671 L 0 .008 M .087 .607 C .11 .612 .14400001 .616 .18900001 .616 C .37300004 .616 .46300004 .515 .46200005 .35600005 C .46200005 .17400001 .361 .07 .17500001 .07 C .141 .07 .109 .071 .087 .075 L .087 .607 Z "/>
</symbol>
<use xlink:href="#font_2_2" transform="matrix(46.073,0,0,-46.073,49.475149,51.488538)" fill="#ffffff"/>
</g>
</g>
</svg>
