<?xml version="1.0" encoding="UTF-8" standalone="no"?>
<svg
   xmlns:dc="http://purl.org/dc/elements/1.1/"
   xmlns:cc="http://creativecommons.org/ns#"
   xmlns:rdf="http://www.w3.org/1999/02/22-rdf-syntax-ns#"
   xmlns:svg="http://www.w3.org/2000/svg"
   xmlns="http://www.w3.org/2000/svg"
   xmlns:sodipodi="http://sodipodi.sourceforge.net/DTD/sodipodi-0.dtd"
   xmlns:inkscape="http://www.inkscape.org/namespaces/inkscape"
   viewBox="0 0 353.99619 408.1553"
   height="408.1553"
   width="353.99619"
   xml:space="preserve"
   id="svg2"
   version="1.1"
   sodipodi:docname="SABSR3.svg"
   inkscape:version="0.92.3 (2405546, 2018-03-11)"><sodipodi:namedview
     pagecolor="#ffffff"
     bordercolor="#666666"
     borderopacity="1"
     objecttolerance="10"
     gridtolerance="10"
     guidetolerance="10"
     inkscape:pageopacity="0"
     inkscape:pageshadow="2"
     inkscape:window-width="1853"
     inkscape:window-height="1025"
     id="namedview89"
     showgrid="false"
     fit-margin-top="0"
     fit-margin-left="0"
     fit-margin-right="0"
     fit-margin-bottom="0"
     inkscape:zoom="0.39333334"
     inkscape:cx="-331.11968"
     inkscape:cy="637.90262"
     inkscape:window-x="67"
     inkscape:window-y="27"
     inkscape:window-maximized="1"
     inkscape:current-layer="svg2" /><metadata
     id="metadata8"><rdf:RDF><cc:Work
         rdf:about=""><dc:format>image/svg+xml</dc:format><dc:type
           rdf:resource="http://purl.org/dc/dcmitype/StillImage" /><dc:title></dc:title></cc:Work></rdf:RDF></metadata><defs
     id="defs6"><clipPath
       id="clipPath20"
       clipPathUnits="userSpaceOnUse"><path
         id="path18"
         d="M 0,0 H 900 V 900 H 0 Z"
         inkscape:connector-curvature="0" /></clipPath><clipPath
       id="clipPath24"
       clipPathUnits="userSpaceOnUse"><path
         id="path22"
         d="M 0,0 H 900 V 900 H 0 Z"
         inkscape:connector-curvature="0" /></clipPath><clipPath
       id="clipPath56"
       clipPathUnits="userSpaceOnUse"><path
         id="path54"
         d="m 149.1834,416.4616 129.258,-74.5699 V 194.5096 l -128.672,73.7101 z"
         inkscape:connector-curvature="0" /></clipPath><clipPath
       id="clipPath62"
       clipPathUnits="userSpaceOnUse"><path
         id="path60"
         d="m 278.4413,194.5087 v 147.382 l -129.258,74.571 0.586,-148.243 z"
         inkscape:connector-curvature="0" /></clipPath><linearGradient
       id="linearGradient70"
       spreadMethod="pad"
       gradientTransform="matrix(1,0,0,-1,0,900)"
       gradientUnits="userSpaceOnUse"
       y2="594.60931"
       x2="278.51682"
       y1="594.60931"
       x1="149.2858"><stop
         id="stop66"
         offset="0"
         style="stop-opacity:1;stop-color:#e0dfdf" /><stop
         id="stop68"
         offset="1"
         style="stop-opacity:1;stop-color:#b3b2b3" /></linearGradient><clipPath
       id="clipPath80"
       clipPathUnits="userSpaceOnUse"><path
         id="path78"
         d="m 447.9717,788.6503 130.977,-75.118 -128.711,-74.296 -130.117,75.156 z"
         inkscape:connector-curvature="0" /></clipPath><clipPath
       id="clipPath86"
       clipPathUnits="userSpaceOnUse"><path
         id="path84"
         d="m 320.1207,714.3913 130.117,-75.156 128.711,74.297 -130.977,75.117 z"
         inkscape:connector-curvature="0" /></clipPath><linearGradient
       id="linearGradient94"
       spreadMethod="pad"
       gradientTransform="matrix(1,0,0,-1,0,900)"
       gradientUnits="userSpaceOnUse"
       y2="186.1488"
       x2="578.98743"
       y1="186.1488"
       x1="320.24191"><stop
         id="stop90"
         offset="0"
         style="stop-opacity:1;stop-color:#e0dfdf" /><stop
         id="stop92"
         offset="1"
         style="stop-opacity:1;stop-color:#b3b2b3" /></linearGradient><clipPath
       id="clipPath104"
       clipPathUnits="userSpaceOnUse"><path
         id="path102"
         d="m 749.0263,425.5251 0.547,-155.351 -132.11,-76.797 v 156.172 z"
         inkscape:connector-curvature="0" /></clipPath><clipPath
       id="clipPath110"
       clipPathUnits="userSpaceOnUse"><path
         id="path108"
         d="m 617.4633,193.3761 132.11,76.7971 -0.547,155.3509 -131.563,-75.9759 z"
         inkscape:connector-curvature="0" /></clipPath><linearGradient
       id="linearGradient118"
       spreadMethod="pad"
       gradientTransform="matrix(1,0,0,-1,0,900)"
       gradientUnits="userSpaceOnUse"
       y2="590.58942"
       x2="749.4903"
       y1="590.58942"
       x1="617.453"><stop
         id="stop114"
         offset="0"
         style="stop-opacity:1;stop-color:#e0dfdf" /><stop
         id="stop116"
         offset="1"
         style="stop-opacity:1;stop-color:#b3b2b3" /></linearGradient></defs><g
     id="g12"
     transform="matrix(1.3333333,0,0,-1.3333333,-26.451233,398.96137)" /><g
     id="g16"
     transform="matrix(1.3333333,0,0,-1.3333333,-26.451233,398.96137)" /><g
     id="g974"
     transform="matrix(0.38867542,0,0,0.38867542,-53.759889,-32.183925)"><path
       inkscape:connector-curvature="0"
       d="M 1035.7346,861.27247 595.4228,1117.5232 153.1827,863.92847 151.672,354.44987 591.9855,98.1992 1034.224,351.42857 Z"
       style="fill:#fcfbfb;fill-opacity:1;fill-rule:nonzero;stroke:none;stroke-width:1.33333325"
       id="path44" /><path
       id="path48"
       style="fill:none;stroke:#898989;stroke-width:26.66823959;stroke-linecap:butt;stroke-linejoin:miter;stroke-miterlimit:4;stroke-dasharray:none;stroke-opacity:1"
       d="M 1035.7346,861.27331 595.42132,1117.5236 153.18426,863.92945 151.67253,354.45039 591.98572,98.200478 1034.2229,351.42972 Z"
       inkscape:connector-curvature="0" /><g
       transform="matrix(1.3333333,0,0,-1.3333333,0,1200)"
       id="g50"><g
         clip-path="url(#clipPath56)"
         id="g52"><g
           clip-path="url(#clipPath62)"
           id="g58"><g
             id="g64"><path
               id="path72"
               style="fill:url(#linearGradient70);stroke:none"
               d="m 278.4413,194.5087 v 147.382 l -129.258,74.571 0.586,-148.243 z"
               inkscape:connector-curvature="0" /></g></g></g></g><g
       transform="matrix(1.3333333,0,0,-1.3333333,0,1200)"
       id="g74"><g
         clip-path="url(#clipPath80)"
         id="g76"><g
           clip-path="url(#clipPath86)"
           id="g82"><g
             id="g88"><path
               id="path96"
               style="fill:url(#linearGradient94);stroke:none"
               d="m 320.1207,714.3913 130.117,-75.156 128.711,74.297 -130.977,75.117 z"
               inkscape:connector-curvature="0" /></g></g></g></g><g
       transform="matrix(1.3333333,0,0,-1.3333333,0,1200)"
       id="g98"><g
         clip-path="url(#clipPath104)"
         id="g100"><g
           clip-path="url(#clipPath110)"
           id="g106"><g
             id="g112"><path
               id="path120"
               style="fill:url(#linearGradient118);stroke:none"
               d="m 617.4633,193.3761 132.11,76.7971 -0.547,155.3509 -131.563,-75.9759 z"
               inkscape:connector-curvature="0" /></g></g></g></g><path
       inkscape:connector-curvature="0"
       d="m 383.7564,708.62347 -189.74,-109.636 v -218.8013 l 189.74,-109.636 189.3747,109.636 v 218.8013 z"
       style="fill:#393283;fill-opacity:1;fill-rule:nonzero;stroke:none;stroke-width:1.33333325"
       id="path124" /><path
       inkscape:connector-curvature="0"
       d="m 807.4537,708.62347 -189.7386,-109.636 v -218.8013 l 189.7386,-109.636 189.74,109.636 v 218.8013 z"
       style="fill:#393283;fill-opacity:1;fill-rule:nonzero;stroke:none;stroke-width:1.33333325"
       id="path126" /><path
       inkscape:connector-curvature="0"
       d="m 267.3497,553.62357 10.5734,-25.6773 c 11.3546,7.9173 22.656,11.7186 33.6453,11.7186 17.396,0 25.6773,-5.6773 25.6773,-17.7599 0,-5.6774 -1.8746,-10.9894 -6.0413,-15.8854 -3.7507,-4.896 -12.084,-10.5733 -24.948,-17.032 -12.448,-6.4053 -20.7813,-11.3013 -25.312,-15.468 -4.1667,-4.1666 -7.552,-9.0626 -9.844,-14.3746 -2.24,-5.6774 -3.3853,-11.7187 -3.3853,-18.4907 0,-12.864 4.5306,-23.4373 13.5933,-31.7707 9.4787,-8.3333 21.1973,-12.448 35.9373,-12.448 18.9067,0 32.5,3.7507 41.5627,10.5734 l -9.0627,24.948 c -9.844,-7.188 -20.7813,-10.5734 -32.1346,-10.5734 -6.824,0 -11.72,1.5107 -15.4694,5.2614 -3.8026,3.3853 -5.6773,7.968 -5.6773,13.5933 0,9.4787 10.5733,19.2707 31.3547,29.1147 10.9373,5.6773 18.9066,10.5733 23.4373,15.104 4.896,4.1666 8.6973,9.4786 11.3547,15.5213 2.2386,6.0413 3.7493,12.864 3.7493,20.052 0,13.2293 -5.26,24.1666 -15.8853,32.864 -10.5734,8.3333 -24.5307,12.8653 -41.9267,12.8653 -15.104,0 -29.1147,-4.1667 -41.1987,-12.136 z"
       style="fill:#fefefe;fill-opacity:1;fill-rule:nonzero;stroke:none;stroke-width:1.33333325"
       id="path128" /><path
       inkscape:connector-curvature="0"
       d="m 454.0681,447.06077 -19.6866,60.4694 h 39.3226 z m 40.052,115.6773 -11.7186,-32.9173 h -56.3014 l -11.3546,32.9173 h -32.1347 l 65,-165.5733 h 12.864 l 65.7813,165.5733 z"
       style="fill:#fefefe;fill-opacity:1;fill-rule:nonzero;stroke:none;stroke-width:1.33333325"
       id="path130" /><path
       inkscape:connector-curvature="0"
       d="m 718.2348,484.45697 v 54.0626 c 6.0426,0.364 10.5733,0.7813 14.376,0.7813 12.864,0 22.2906,-2.292 27.968,-6.4586 6.0413,-4.5307 9.0626,-11.7187 9.0626,-21.9267 0,-9.428 -3.0213,-16.2506 -8.3333,-20.3653 -5.26,-4.1667 -14.74,-6.4573 -28.3333,-6.4573 -3.0214,0 -7.916,0 -14.74,0.364 z m 0,-61.9787 v 39.3227 c 4.532,0.364 9.0626,0.364 14.0106,0.364 18.8547,0 28.3334,-7.1867 28.3334,-21.1454 0,-12.5 -8.3334,-18.9066 -25.7294,-18.9066 -4.5306,0 -10.208,0 -16.6146,0.3653 z m 21.1466,140.26 h -50.2613 v -163.2813 c 22.292,-1.1454 37.448,-1.5107 46.5107,-1.5107 16.98,0 30.208,3.3853 39.688,10.9373 9.4266,7.188 14.3746,17.396 14.3746,30.9894 0,12.8653 -6.8226,23.0733 -20.416,30.6253 20.416,7.188 30.208,21.5627 30.208,43.8547 0,14.74 -5.2613,26.4586 -16.6146,35.5199 -11.3547,8.6987 -25.6774,12.8654 -43.4894,12.8654 z"
       style="fill:#fefefe;fill-opacity:1;fill-rule:nonzero;stroke:none;stroke-width:1.33333325"
       id="path132" /><path
       inkscape:connector-curvature="0"
       d="m 824.4332,553.62357 10.572,-25.6773 c 11.3546,7.9173 22.7093,11.7186 34.0626,11.7186 16.98,0 25.3134,-5.6773 25.3134,-17.7599 0,-5.6774 -1.928,-10.9894 -6.0427,-15.8854 -3.8013,-4.896 -12.1347,-10.5733 -24.5827,-17.032 -12.8653,-6.4053 -21.1453,-11.3013 -25.312,-15.468 -4.532,-4.1666 -7.9693,-9.0626 -10.2093,-14.3746 -2.2907,-5.6774 -3.4373,-11.7187 -3.4373,-18.4907 0,-12.864 4.584,-23.4373 13.6466,-31.7707 9.4267,-8.3333 21.1454,-12.448 35.8854,-12.448 18.9053,0 32.864,3.7507 41.5613,10.5734 l -8.6973,24.948 c -10.156,-7.188 -21.1454,-10.5734 -32.5,-10.5734 -6.4067,0 -11.7187,1.5107 -15.4694,5.2614 -3.8013,3.3853 -5.676,7.968 -5.676,13.5933 0,9.4787 10.572,19.2707 31.3534,29.1147 10.9893,5.6773 18.9066,10.5733 23.4373,15.104 4.948,4.1666 8.6987,9.4786 11.3547,15.5213 2.24,6.0413 3.7506,12.864 3.7506,20.052 0,13.2293 -5.2613,24.1666 -15.8333,32.864 -10.2093,8.3333 -24.584,12.8653 -41.98,12.8653 -15.104,0 -29.1147,-4.1667 -41.1973,-12.136 z"
       style="fill:#fefefe;fill-opacity:1;fill-rule:nonzero;stroke:none;stroke-width:1.33333325"
       id="path134" /><path
       inkscape:connector-curvature="0"
       d="m 695.5788,869.61277 h 17.396 v 97.8653 l -17.396,10.208 z"
       style="fill:#fefefe;fill-opacity:1;fill-rule:nonzero;stroke:none;stroke-width:1.33333325"
       id="path136" /><path
       inkscape:connector-curvature="0"
       d="m 481.6204,871.48757 v 66.928 c 2.6573,1.8747 5.6773,3.7493 9.1147,5.6773 8.6466,4.8947 15.8333,5.624 20.7813,2.2387 4.896,-3.3853 7.552,-10.9373 7.552,-22.2907 0,-21.1466 -9.844,-37.396 -29.4787,-48.3866 -1.8746,-1.1454 -4.5306,-2.656 -7.9693,-4.1667 z m 4.584,85.4173 -21.9267,-12.812 v -97.9173 c 13.9574,7.552 22.656,12.084 26.0414,14.3747 14.3746,8.2813 25.7293,18.9066 34.0106,32.136 8.3334,13.2293 12.5,26.8226 12.5,40.416 0,35.5213 -17.032,43.0733 -50.6253,23.8026 z"
       style="fill:#fefefe;fill-opacity:1;fill-rule:nonzero;stroke:none;stroke-width:1.33333325"
       id="path138" /><path
       inkscape:connector-curvature="0"
       d="m 750.7352,833.31147 -0.7294,20.7813 -93.3853,51.0413 v -16.98 z"
       style="fill:#fefefe;fill-opacity:1;fill-rule:nonzero;stroke:none;stroke-width:1.33333325"
       id="path140" /><path
       inkscape:connector-curvature="0"
       d="m 703.8604,823.51957 c 0,24.948 0.4173,49.4787 0.4173,74.0627 0,24.948 0,49.5306 0.364,74.0626 -8.3333,4.948 -17.0307,9.8427 -25.3121,14.3747 0,-24.584 0,-49.1147 0,-74.0627 -0.4174,-24.5826 -0.4174,-49.1666 -0.4174,-73.6973 -9.792,5.26 -19.6346,10.9373 -29.0626,16.6133 -9.844,5.6774 -19.2707,11.3547 -29.1147,16.6147 0,-6.7707 0,-13.5933 0,-20.416 23.8027,-13.9587 47.9693,-27.9693 71.8228,-41.5627 24.1679,-13.9586 48.3865,-27.9693 72.5532,-41.9266 0,6.7706 0,13.9573 0,20.7813 -10.2093,6.0413 -20.4173,11.7187 -30.6253,17.76 -10.208,5.6773 -20.4174,11.7187 -30.6252,17.396 z"
       style="fill:#fefefe;fill-opacity:1;fill-rule:nonzero;stroke:none;stroke-width:1.33333325"
       id="path142" /><path
       inkscape:connector-curvature="0"
       d="m 654.7455,666.64487 c -3.02,4.8947 -6.4067,9.8427 -9.844,14.7387 -9.4267,-3.7493 -24.1667,-5.676 -44.2187,-5.26 -19.2707,0 -34.3747,4.896 -45.7293,14.3227 -11.3014,9.844 -16.9787,22.292 -16.9787,37.032 0,14.3746 5.6773,26.0933 17.344,34.7906 12.1347,8.6987 27.2387,12.8654 45.7813,12.8654 20,-0.3654 35.52,-4.532 46.4574,-13.2294 5.6773,4.5307 10.9906,8.6974 16.2506,13.2294 -16.9786,9.792 -38.9066,15.104 -65.7813,15.468 -28.3333,0.4173 -50.6253,-5.26 -66.8747,-16.9787 -16.2506,-11.7187 -24.1666,-27.24 -24.1666,-46.8747 0,-18.5426 8.2813,-34.3746 25.6773,-46.876 17.396,-12.4466 39.6867,-19.2706 66.9267,-19.2706 23.8026,-0.364 41.9266,1.876 55.156,6.0426 z"
       style="fill:#fefefe;fill-opacity:1;fill-rule:nonzero;stroke:none;stroke-width:1.33333325"
       id="path144" /><path
       inkscape:connector-curvature="0"
       d="m 409.0683,959.19677 189.376,110.72943 -0.4174,-219.21873 h -0.364 L 409.8496,741.85277 Z"
       style="fill:#393283;fill-opacity:1;fill-rule:nonzero;stroke:none;stroke-width:1.33333325"
       id="path146" /><path
       inkscape:connector-curvature="0"
       d="m 787.767,959.19677 v -220 l -189.7399,110 0.4173,220.72943 189.3226,-111.51073 z"
       style="fill:#2f4392;fill-opacity:1;fill-rule:nonzero;stroke:none;stroke-width:1.33333325"
       id="path148" /><path
       inkscape:connector-curvature="0"
       d="m 703.496,855.60207 c 0.364,18.9067 0.364,37.8134 0.364,57.084 0,18.9067 0,37.812 0.4173,57.0827 -6.4587,3.3853 -13.2293,7.188 -19.688,10.9387 0,-18.8547 0,-38.1774 0,-57.032 0,-18.9067 -0.3653,-37.812 -0.3653,-57.0827 -7.1867,4.5307 -14.7387,8.6973 -22.2907,13.228 -7.552,4.1667 -14.74,8.3333 -22.292,12.8653 0,-5.312 0,-10.6253 0,-15.8853 18.1254,-10.9893 36.6667,-21.5627 55.156,-32.136 18.5413,-10.9373 37.448,-21.5627 55.9373,-32.1347 0,5.312 0,10.572 0,15.8854 -7.916,4.5306 -15.8853,9.0626 -23.4373,13.5933 -7.916,4.5307 -15.8853,9.0627 -23.8013,13.5933 z"
       style="fill:#fefefe;fill-opacity:1;fill-rule:nonzero;stroke:none;stroke-width:1.33333325"
       id="path150" /><path
       inkscape:connector-curvature="0"
       d="m 487.2976,965.23807 c -4.5307,-3.0213 -9.4267,-6.0413 -13.9587,-9.0626 -4.5306,-2.656 -9.4786,-5.6774 -14.0093,-8.6974 0,-23.0733 0,-46.5106 0,-69.532 0,-23.0733 0,-46.1453 0,-69.1666 8.6973,5.2613 16.2493,9.792 21.9267,13.2293 5.6773,3.3853 9.844,5.6253 12.0826,7.136 9.844,6.0933 18.5427,13.2293 26.0947,20.8333 7.552,7.552 14.3747,16.2494 20.052,25.676 5.6773,9.0627 10.208,18.9067 12.812,28.3334 3.0213,9.48 4.584,19.272 4.584,29.1146 0,24.948 -5.6773,40.4694 -17.032,45.7294 -11.7187,5.3133 -29.1147,0.7813 -52.552,-13.5934 z m -9.0627,-127.76 c 0,17.3947 0,34.3747 0,51.7707 0,17.396 0,34.792 0,52.1867 4.532,3.0213 9.48,6.7706 15.8854,10.5733 6.824,4.1667 12.8653,6.8227 18.1253,7.552 4.948,0.7813 9.48,-0.364 13.2293,-2.656 4.1667,-2.656 6.8227,-7.188 8.6974,-12.812 1.876,-5.6773 2.6573,-12.8653 2.6573,-21.928 0,-16.2493 -3.8027,-30.9893 -11.3547,-43.8533 -7.188,-12.5 -18.4893,-23.8027 -33.2293,-32.8654 -1.5107,-1.1453 -6.4587,-3.8013 -14.0107,-7.968 z"
       style="fill:#fefefe;fill-opacity:1;fill-rule:nonzero;stroke:none;stroke-width:1.33333325"
       id="path152" /><path
       inkscape:connector-curvature="0"
       d="m 409.0683,742.21677 c 31.3546,-18.4893 62.7613,-37.0307 94.1146,-55.9373 31.7707,-18.4894 63.1254,-37.0307 94.48,-55.52 31.7707,18.124 63.124,36.2493 94.8947,54.4266 31.3546,17.76 62.7093,35.8854 94.48,54.0107 -31.3547,18.5413 -63.1254,37.448 -94.48,55.9373 -31.4053,18.5414 -62.76,37.0827 -94.5307,55.5734 -31.3546,-17.7614 -63.0733,-35.8867 -94.4786,-54.0627 -31.3547,-18.1253 -63.1254,-36.2507 -94.48,-54.428 z"
       style="fill:#0092d4;fill-opacity:1;fill-rule:nonzero;stroke:none;stroke-width:1.33333325"
       id="path154" /><path
       inkscape:connector-curvature="0"
       d="m 653.6001,685.18607 c -2.656,4.1667 -5.6773,8.2814 -8.2813,12.448 -7.9693,-3.0213 -20.8333,-4.896 -37.8133,-4.532 -16.2494,0 -29.1134,4.1667 -38.9574,12.5 -9.428,8.2814 -14.324,18.4907 -14.324,31.3547 0,12.084 4.896,21.9267 15.1054,29.4787 9.8426,7.552 22.656,11.3546 38.5413,10.9386 17.0307,0 30.26,-3.7506 39.6867,-10.9386 4.532,3.7506 9.0626,7.188 14.0106,10.9386 -14.7386,8.6974 -33.2813,12.864 -56.3533,13.228 -24.1667,0.4174 -42.7093,-4.5306 -56.6667,-14.3226 -13.5946,-10.208 -20.7813,-23.4374 -20.7813,-39.6867 0,-16.2507 7.1867,-29.48 21.9267,-40.1053 14.74,-10.9374 33.5933,-16.2494 57.032,-16.6147 20.052,0 35.572,1.5107 46.8746,5.3133 z"
       style="fill:#fefefe;fill-opacity:1;fill-rule:nonzero;stroke:none;stroke-width:1.33333325"
       id="path156" /><g
       id="g158"
       transform="matrix(1.3333333,0.76980038,0,1.3333333,230.7601,823.31787)"><text
   style="font-variant:normal;font-weight:normal;font-size:140px;font-family:TrebuchetMS;-inkscape-font-specification:TrebuchetMS;writing-mode:lr-tb;fill:#ffffff;fill-opacity:1;fill-rule:nonzero;stroke:none"
   id="text162"><tspan
     x="0"
     y="0"
     id="tspan160">R</tspan></text>



</g><g
       id="g164"
       transform="matrix(1.3333333,-0.76980025,0,1.3333333,857.0362,886.04447)"><text
   style="font-variant:normal;font-weight:normal;font-size:140px;font-family:TrebuchetMS;-inkscape-font-specification:TrebuchetMS;writing-mode:lr-tb;fill:#ffffff;fill-opacity:1;fill-rule:nonzero;stroke:none"
   id="text168"><tspan
     x="0"
     y="0"
     id="tspan166">R</tspan></text>



</g><g
       id="g170"
       transform="matrix(1.3333333,0,0,1.3333333,545.0575,311.08437)"><text
   style="font-variant:normal;font-weight:normal;font-size:140px;font-family:TrebuchetMS;-inkscape-font-specification:TrebuchetMS;writing-mode:lr-tb;fill:#ffffff;fill-opacity:1;fill-rule:nonzero;stroke:none"
   id="text174"><tspan
     x="0"
     y="0"
     id="tspan172">R</tspan></text>



</g></g></svg>